<mxfile host="app.diagrams.net" modified="2022-03-04T03:33:34.634Z" agent="5.0 (Macintosh; Intel Mac OS X 10_15_7) AppleWebKit/537.36 (KHTML, like Gecko) Chrome/98.0.4758.109 Safari/537.36" etag="ZT6VAEgQAbued-oM5dBa" version="16.6.5" type="github">
  <diagram id="ohZ2h_8d_z_Xoi2iBNV7" name="Page-1">
    <mxGraphModel dx="2082" dy="811" grid="1" gridSize="10" guides="1" tooltips="1" connect="1" arrows="1" fold="1" page="1" pageScale="1" pageWidth="827" pageHeight="1169" math="0" shadow="0">
      <root>
        <mxCell id="0" />
        <mxCell id="1" parent="0" />
        <mxCell id="sP8UJ-ZH4hneoJl9QGoM-1" value="人群营销报告" style="rounded=0;whiteSpace=wrap;html=1;" vertex="1" parent="1">
          <mxGeometry x="190" y="200" width="120" height="60" as="geometry" />
        </mxCell>
        <mxCell id="sP8UJ-ZH4hneoJl9QGoM-2" value="人群应用偏好报告" style="rounded=0;whiteSpace=wrap;html=1;" vertex="1" parent="1">
          <mxGeometry x="340" y="200" width="120" height="60" as="geometry" />
        </mxCell>
        <mxCell id="sP8UJ-ZH4hneoJl9QGoM-3" value="。。。" style="rounded=0;whiteSpace=wrap;html=1;" vertex="1" parent="1">
          <mxGeometry x="490" y="200" width="120" height="60" as="geometry" />
        </mxCell>
        <mxCell id="sP8UJ-ZH4hneoJl9QGoM-4" value="ip模板" style="rounded=0;whiteSpace=wrap;html=1;" vertex="1" parent="1">
          <mxGeometry x="100" y="330" width="120" height="60" as="geometry" />
        </mxCell>
        <mxCell id="sP8UJ-ZH4hneoJl9QGoM-5" value="资讯模板" style="rounded=0;whiteSpace=wrap;html=1;" vertex="1" parent="1">
          <mxGeometry x="260" y="330" width="120" height="60" as="geometry" />
        </mxCell>
        <mxCell id="sP8UJ-ZH4hneoJl9QGoM-6" value="应用模板" style="rounded=0;whiteSpace=wrap;html=1;" vertex="1" parent="1">
          <mxGeometry x="420" y="330" width="120" height="60" as="geometry" />
        </mxCell>
        <mxCell id="sP8UJ-ZH4hneoJl9QGoM-7" value="。。。" style="rounded=0;whiteSpace=wrap;html=1;" vertex="1" parent="1">
          <mxGeometry x="580" y="330" width="120" height="60" as="geometry" />
        </mxCell>
        <mxCell id="sP8UJ-ZH4hneoJl9QGoM-8" value="活跃" style="rounded=0;whiteSpace=wrap;html=1;" vertex="1" parent="1">
          <mxGeometry x="50" y="480" width="120" height="60" as="geometry" />
        </mxCell>
        <mxCell id="sP8UJ-ZH4hneoJl9QGoM-9" value="兴趣" style="rounded=0;whiteSpace=wrap;html=1;" vertex="1" parent="1">
          <mxGeometry x="200" y="480" width="120" height="60" as="geometry" />
        </mxCell>
        <mxCell id="sP8UJ-ZH4hneoJl9QGoM-10" value="特征重要度" style="rounded=0;whiteSpace=wrap;html=1;" vertex="1" parent="1">
          <mxGeometry x="340" y="480" width="120" height="60" as="geometry" />
        </mxCell>
        <mxCell id="sP8UJ-ZH4hneoJl9QGoM-11" value="转化" style="rounded=0;whiteSpace=wrap;html=1;" vertex="1" parent="1">
          <mxGeometry x="490" y="480" width="120" height="60" as="geometry" />
        </mxCell>
        <mxCell id="sP8UJ-ZH4hneoJl9QGoM-12" value="&lt;font style=&quot;font-size: 18px&quot;&gt;报告&lt;/font&gt;" style="text;html=1;strokeColor=none;fillColor=none;align=center;verticalAlign=middle;whiteSpace=wrap;rounded=0;" vertex="1" parent="1">
          <mxGeometry x="-160" y="207.5" width="120" height="45" as="geometry" />
        </mxCell>
        <mxCell id="sP8UJ-ZH4hneoJl9QGoM-13" value="&lt;font style=&quot;font-size: 18px&quot;&gt;模板&lt;/font&gt;" style="text;html=1;strokeColor=none;fillColor=none;align=center;verticalAlign=middle;whiteSpace=wrap;rounded=0;" vertex="1" parent="1">
          <mxGeometry x="-160" y="337.5" width="120" height="45" as="geometry" />
        </mxCell>
        <mxCell id="sP8UJ-ZH4hneoJl9QGoM-14" value="&lt;font style=&quot;font-size: 18px&quot;&gt;指标&lt;/font&gt;" style="text;html=1;strokeColor=none;fillColor=none;align=center;verticalAlign=middle;whiteSpace=wrap;rounded=0;" vertex="1" parent="1">
          <mxGeometry x="-160" y="487.5" width="120" height="45" as="geometry" />
        </mxCell>
        <mxCell id="sP8UJ-ZH4hneoJl9QGoM-15" value="品类偏好" style="rounded=0;whiteSpace=wrap;html=1;" vertex="1" parent="1">
          <mxGeometry x="640" y="480" width="120" height="60" as="geometry" />
        </mxCell>
        <mxCell id="sP8UJ-ZH4hneoJl9QGoM-16" value="" style="endArrow=classic;html=1;rounded=0;fontSize=18;exitX=0.5;exitY=1;exitDx=0;exitDy=0;entryX=0.5;entryY=0;entryDx=0;entryDy=0;" edge="1" parent="1" source="sP8UJ-ZH4hneoJl9QGoM-1" target="sP8UJ-ZH4hneoJl9QGoM-4">
          <mxGeometry width="50" height="50" relative="1" as="geometry">
            <mxPoint x="30" y="250" as="sourcePoint" />
            <mxPoint x="80" y="200" as="targetPoint" />
          </mxGeometry>
        </mxCell>
        <mxCell id="sP8UJ-ZH4hneoJl9QGoM-17" value="" style="endArrow=classic;html=1;rounded=0;fontSize=18;exitX=0.5;exitY=1;exitDx=0;exitDy=0;entryX=0.5;entryY=0;entryDx=0;entryDy=0;" edge="1" parent="1" source="sP8UJ-ZH4hneoJl9QGoM-1" target="sP8UJ-ZH4hneoJl9QGoM-5">
          <mxGeometry width="50" height="50" relative="1" as="geometry">
            <mxPoint x="260" y="270" as="sourcePoint" />
            <mxPoint x="170" y="340" as="targetPoint" />
          </mxGeometry>
        </mxCell>
        <mxCell id="sP8UJ-ZH4hneoJl9QGoM-18" value="" style="endArrow=classic;html=1;rounded=0;fontSize=18;exitX=0.5;exitY=1;exitDx=0;exitDy=0;entryX=0.5;entryY=0;entryDx=0;entryDy=0;" edge="1" parent="1" source="sP8UJ-ZH4hneoJl9QGoM-2" target="sP8UJ-ZH4hneoJl9QGoM-6">
          <mxGeometry width="50" height="50" relative="1" as="geometry">
            <mxPoint x="260" y="270" as="sourcePoint" />
            <mxPoint x="330" y="340" as="targetPoint" />
          </mxGeometry>
        </mxCell>
        <mxCell id="sP8UJ-ZH4hneoJl9QGoM-19" value="" style="endArrow=classic;html=1;rounded=0;fontSize=18;exitX=0.5;exitY=1;exitDx=0;exitDy=0;entryX=0.5;entryY=0;entryDx=0;entryDy=0;" edge="1" parent="1" source="sP8UJ-ZH4hneoJl9QGoM-4" target="sP8UJ-ZH4hneoJl9QGoM-8">
          <mxGeometry width="50" height="50" relative="1" as="geometry">
            <mxPoint x="260" y="270" as="sourcePoint" />
            <mxPoint x="170" y="340" as="targetPoint" />
          </mxGeometry>
        </mxCell>
        <mxCell id="sP8UJ-ZH4hneoJl9QGoM-20" value="" style="endArrow=classic;html=1;rounded=0;fontSize=18;exitX=0.5;exitY=1;exitDx=0;exitDy=0;" edge="1" parent="1" source="sP8UJ-ZH4hneoJl9QGoM-5">
          <mxGeometry width="50" height="50" relative="1" as="geometry">
            <mxPoint x="170" y="400" as="sourcePoint" />
            <mxPoint x="110" y="480" as="targetPoint" />
          </mxGeometry>
        </mxCell>
        <mxCell id="sP8UJ-ZH4hneoJl9QGoM-21" value="" style="endArrow=classic;html=1;rounded=0;fontSize=18;exitX=0.5;exitY=1;exitDx=0;exitDy=0;entryX=0.5;entryY=0;entryDx=0;entryDy=0;" edge="1" parent="1" source="sP8UJ-ZH4hneoJl9QGoM-4" target="sP8UJ-ZH4hneoJl9QGoM-10">
          <mxGeometry width="50" height="50" relative="1" as="geometry">
            <mxPoint x="330" y="400" as="sourcePoint" />
            <mxPoint x="120" y="490" as="targetPoint" />
          </mxGeometry>
        </mxCell>
        <mxCell id="sP8UJ-ZH4hneoJl9QGoM-22" value="" style="endArrow=classic;html=1;rounded=0;fontSize=18;exitX=0.5;exitY=1;exitDx=0;exitDy=0;entryX=0.5;entryY=0;entryDx=0;entryDy=0;" edge="1" parent="1" source="sP8UJ-ZH4hneoJl9QGoM-5" target="sP8UJ-ZH4hneoJl9QGoM-10">
          <mxGeometry width="50" height="50" relative="1" as="geometry">
            <mxPoint x="340" y="410" as="sourcePoint" />
            <mxPoint x="130" y="500" as="targetPoint" />
          </mxGeometry>
        </mxCell>
        <mxCell id="sP8UJ-ZH4hneoJl9QGoM-23" value="" style="endArrow=classic;html=1;rounded=0;fontSize=18;exitX=0.5;exitY=1;exitDx=0;exitDy=0;entryX=0.5;entryY=0;entryDx=0;entryDy=0;" edge="1" parent="1" source="sP8UJ-ZH4hneoJl9QGoM-5" target="sP8UJ-ZH4hneoJl9QGoM-9">
          <mxGeometry width="50" height="50" relative="1" as="geometry">
            <mxPoint x="330" y="400" as="sourcePoint" />
            <mxPoint x="410" y="490" as="targetPoint" />
          </mxGeometry>
        </mxCell>
        <mxCell id="sP8UJ-ZH4hneoJl9QGoM-24" value="" style="endArrow=classic;html=1;rounded=0;fontSize=18;exitX=0.5;exitY=1;exitDx=0;exitDy=0;entryX=0.5;entryY=0;entryDx=0;entryDy=0;" edge="1" parent="1" source="sP8UJ-ZH4hneoJl9QGoM-6" target="sP8UJ-ZH4hneoJl9QGoM-10">
          <mxGeometry width="50" height="50" relative="1" as="geometry">
            <mxPoint x="340" y="410" as="sourcePoint" />
            <mxPoint x="420" y="500" as="targetPoint" />
          </mxGeometry>
        </mxCell>
        <mxCell id="sP8UJ-ZH4hneoJl9QGoM-25" value="" style="endArrow=classic;html=1;rounded=0;fontSize=18;entryX=0.5;entryY=0;entryDx=0;entryDy=0;" edge="1" parent="1" target="sP8UJ-ZH4hneoJl9QGoM-11">
          <mxGeometry width="50" height="50" relative="1" as="geometry">
            <mxPoint x="480" y="390" as="sourcePoint" />
            <mxPoint x="410" y="490" as="targetPoint" />
          </mxGeometry>
        </mxCell>
        <mxCell id="sP8UJ-ZH4hneoJl9QGoM-26" value="" style="endArrow=classic;html=1;rounded=0;fontSize=18;exitX=0.5;exitY=1;exitDx=0;exitDy=0;entryX=0.5;entryY=0;entryDx=0;entryDy=0;" edge="1" parent="1" source="sP8UJ-ZH4hneoJl9QGoM-6" target="sP8UJ-ZH4hneoJl9QGoM-15">
          <mxGeometry width="50" height="50" relative="1" as="geometry">
            <mxPoint x="500" y="410" as="sourcePoint" />
            <mxPoint x="420" y="500" as="targetPoint" />
          </mxGeometry>
        </mxCell>
      </root>
    </mxGraphModel>
  </diagram>
</mxfile>
